PathFileType	4	(X/Y/Z)	C:/Users/opensim2020/Desktop/walking_exp_matlab/subject02_walking09_straight_04.trc	
DataRate	CameraRate	NumFrames	NumMarkers	Units	OrigDataRate	OrigDataStartFrame	OrigNumFrames	
100.00	100.00	4	42	mm	100.00	3042	285	
Frame#	Time	LFHD			RFHD			LBHD			RBHD			C7			T10			CLAV			STRN			RBAK			LSHO			LUPA			LELB			LFRM			LWRA			LWRB			LFIN			RSHO			RUPA			RELB			RFRM			RWRA			RWRB			RFIN			LASI			RASI			LPSI			RPSI			LTHI			LKNE			LTIB			LANK			LHEE			LTOE			RTHI			RKNE			RTIB			RANK			RHEE			RTOE			*39			*40			*41			
		X1	Y1	Z1	X2	Y2	Z2	X3	Y3	Z3	X4	Y4	Z4	X5	Y5	Z5	X6	Y6	Z6	X7	Y7	Z7	X8	Y8	Z8	X9	Y9	Z9	X10	Y10	Z10	X11	Y11	Z11	X12	Y12	Z12	X13	Y13	Z13	X14	Y14	Z14	X15	Y15	Z15	X16	Y16	Z16	X17	Y17	Z17	X18	Y18	Z18	X19	Y19	Z19	X20	Y20	Z20	X21	Y21	Z21	X22	Y22	Z22	X23	Y23	Z23	X24	Y24	Z24	X25	Y25	Z25	X26	Y26	Z26	X27	Y27	Z27	X28	Y28	Z28	X29	Y29	Z29	X30	Y30	Z30	X31	Y31	Z31	X32	Y32	Z32	X33	Y33	Z33	X34	Y34	Z34	X35	Y35	Z35	X36	Y36	Z36	X37	Y37	Z37	X38	Y38	Z38	X39	Y39	Z39	X40	Y40	Z40	X41	Y41	Z41	X42	Y42	Z42	

36	0.350	1412.35449	728.67859	1765.43066	1273.10059	744.23444	1731.88672	1444.11255	848.83545	1680.20874	1307.82886	876.13696	1645.32996	1367.53845	899.86182	1532.82983	1352.43689	948.72278	1259.91772	1396.11658	759.55096	1469.32275	1394.07861	705.63940	1297.03564	1293.77783	944.99670	1361.38940	1555.42395	850.33929	1510.34180	1630.25220	889.62708	1310.75391	1633.63879	907.84625	1169.36096	1639.06665	907.04028	1035.90625	1598.71460	858.19244	907.96204	1634.36597	902.83746	912.24835	1627.20374	891.88116	844.83923	1193.72876	793.87897	1501.83582	1106.46021	790.60388	1307.50903	1097.37231	763.46442	1163.04761	1083.43042	722.96320	1050.12866	1108.82251	669.68640	927.60095	1069.18152	710.48926	921.29510	1070.84778	667.44391	862.56824	1513.25256	742.05878	991.86633	1259.80774	705.84570	987.05048	1403.38782	937.89117	1040.96997	1288.26245	926.34589	1045.27466	1578.04565	787.18933	684.66309	1563.67554	787.07861	497.31821	1532.87561	921.50055	371.93195	1491.38306	1027.01648	178.59500	1428.31860	1049.28284	164.54373	1551.10120	935.00092	68.47910	1191.38635	766.78699	679.92444	1241.44092	768.03705	470.81451	1239.82825	807.09802	285.26569	1285.73425	827.75293	94.59198	1342.15674	864.10120	42.58747	1280.87708	673.84821	40.67624	1329.70752	846.40314	1811.51978	-3360.26953	2845.19482	1034.21631			 
37	0.360	1412.84741	720.86505	1765.93079	1273.69458	736.16992	1732.88269	1444.25439	841.08685	1680.78455	1307.78125	868.19849	1646.26685	1367.00085	892.07397	1533.73987	1351.46411	941.42523	1260.94763	1396.33521	752.02472	1470.10620	1393.99658	698.57574	1297.73108	1292.58203	937.11719	1362.59631	1555.17810	843.43024	1510.93481	1629.52661	883.89142	1311.41638	1632.32898	902.99335	1169.98523	1637.58423	903.07233	1036.70728	1595.77319	855.38800	908.61060	1632.07727	899.35693	912.78467	1624.38745	888.87885	845.50537	1193.80225	785.34845	1503.02771	1105.34204	780.90045	1309.05798	1095.97070	752.40723	1164.96875	1081.96497	710.28809	1052.56519	1107.27124	654.92712	931.10272	1067.92920	695.78864	923.94543	1069.26501	651.48645	866.34979	1511.86853	734.78601	993.49194	1258.81848	699.47711	987.52307	1403.45776	930.43103	1041.95947	1288.47437	919.94043	1045.67236	1577.89172	776.05219	686.09998	1563.24963	772.93555	498.57031	1533.61621	903.89008	368.77530	1492.74402	1003.48688	172.04823	1429.78345	1025.69324	156.73706	1552.53442	907.12756	66.08244	1191.35205	763.14691	679.74518	1241.24048	765.88910	470.52597	1240.04590	806.11456	285.35849	1285.86609	827.62085	94.68584	1341.59277	864.46973	42.34628	1280.85156	673.90143	40.74460	1329.97339	838.19812	1812.20227	-3360.26416	2845.18042	1033.98035			 
38	0.370	1413.58557	712.92023	1766.45068	1274.04138	728.00122	1733.60278	1444.39783	833.33026	1681.27881	1307.87268	860.23004	1647.14563	1366.53101	884.27271	1534.53796	1350.64050	934.24860	1261.86890	1396.26465	744.53900	1470.61438	1393.68994	691.34521	1298.11365	1291.54431	929.36621	1363.73401	1554.63745	836.32666	1511.24390	1628.73779	878.21063	1311.96411	1631.78381	898.27673	1170.84192	1636.23755	898.93353	1037.35217	1593.37500	852.33496	909.46252	1630.31079	895.87476	913.59692	1622.04456	885.49158	846.20166	1193.59851	776.73322	1504.11145	1104.59729	770.80499	1310.98560	1094.36230	741.72034	1166.86499	1080.61255	697.48370	1055.01904	1106.04590	640.12384	934.85632	1066.91809	680.95062	926.68109	1067.88184	635.42883	870.24316	1510.75977	727.45471	995.15826	1258.07434	693.79926	987.81226	1403.86328	923.62866	1043.02319	1288.79358	913.57056	1046.09338	1578.09375	765.45813	688.02142	1562.76807	759.14410	499.75452	1534.36377	886.23987	365.31091	1494.50708	979.46179	165.23859	1431.63354	1001.45575	148.65007	1554.16406	878.57074	63.42602	1191.50977	759.77161	679.49896	1241.52075	763.83722	470.69513	1240.24561	805.43176	285.47263	1286.10327	827.57129	94.94042	1342.31848	865.19275	42.35287	1280.69910	673.87097	40.64378	1330.56348	830.08154	1813.06555	-3360.32471	2845.23828	1034.12598			 
39	0.380	1414.22766	705.00165	1766.64148	1274.75964	720.02264	1734.37634	1444.65894	825.61310	1681.66345	1307.94470	852.34479	1648.00757	1366.23828	876.57086	1535.22070	1349.94202	927.07074	1262.69482	1396.24280	736.97034	1471.09802	1393.35266	684.13336	1298.39954	1289.97375	920.81390	1364.46301	1554.54211	829.45868	1511.65747	1628.38220	872.82977	1312.72620	1631.35059	893.64233	1171.70374	1635.14502	894.66058	1038.01550	1591.26563	848.88892	910.23016	1628.65381	892.00677	914.20209	1619.77905	881.72113	846.70361	1193.68066	768.44769	1505.20959	1103.94482	761.62671	1312.65967	1093.06750	730.82727	1168.72986	1079.49561	684.74445	1057.50439	1105.01941	625.50275	938.21649	1065.69238	666.01642	929.36517	1066.87231	619.44403	873.91400	1509.65259	720.05249	996.61774	1257.22437	687.87726	987.84705	1404.34119	916.83148	1044.05310	1289.16040	907.25793	1046.50500	1578.12183	754.97125	689.58167	1561.93616	745.52692	500.57742	1535.13550	868.58380	361.60455	1496.47095	954.75848	157.92058	1433.89880	976.61658	140.21426	1556.33240	849.64355	61.18249	1191.60437	756.16730	679.32220	1241.85986	762.23444	470.47446	1240.45947	804.80762	285.66861	1286.27222	827.48560	94.98306	1342.42175	865.13135	42.48083	1280.62744	673.91760	40.63837	1331.07581	821.82892	1813.71057	-3357.46680	2845.90283	1034.22144			 
